<svg width="247" height="165" viewBox="0 0 247 165" fill="none" xmlns="http://www.w3.org/2000/svg">
<path id="Vector" d="M233.469 1.8126H13.675C9.36255 1.8126 4.9063 1.66885 0.737549 0.662598L18.85 111.063C22.875 135.788 33.6563 164.25 81.525 164.25H162.169C210.613 164.25 219.238 139.956 224.413 112.788L246.119 0.662598C242.094 1.5251 237.781 1.8126 233.469 1.8126ZM103.519 94.6751C103.519 100.281 99.0625 104.738 93.4563 104.738C87.85 104.738 83.3938 100.281 83.3938 94.6751V47.2376C83.3938 41.6313 87.85 37.1751 93.4563 37.1751C99.0625 37.1751 103.519 41.6313 103.519 47.2376V94.6751ZM165.044 94.6751C165.044 100.281 160.588 104.738 154.981 104.738C149.375 104.738 144.919 100.281 144.919 94.6751V47.2376C144.919 41.6313 149.375 37.1751 154.981 37.1751C160.588 37.1751 165.044 41.6313 165.044 47.2376V94.6751Z" fill="#9BAEC7"/>
</svg>
